<svg width="20" height="20" viewBox="0 0 20 20" fill="none" xmlns="http://www.w3.org/2000/svg">
<path d="M3.75 18.3334C3.41667 18.3334 3.125 18.2084 2.875 17.9584C2.625 17.7084 2.5 17.4167 2.5 17.0834V4.16669C2.5 3.83335 2.625 3.54169 2.875 3.29169C3.125 3.04169 3.41667 2.91669 3.75 2.91669H5.10417V1.66669H6.45833V2.91669H13.5417V1.66669H14.8958V2.91669H16.25C16.5833 2.91669 16.875 3.04169 17.125 3.29169C17.375 3.54169 17.5 3.83335 17.5 4.16669V17.0834C17.5 17.4167 17.375 17.7084 17.125 17.9584C16.875 18.2084 16.5833 18.3334 16.25 18.3334H3.75ZM3.75 17.0834H16.25V8.12502H3.75V17.0834ZM3.75 6.87502H16.25V4.16669H3.75V6.87502ZM3.75 6.87502V4.16669V6.87502Z" fill="#9FA2B4"/>
</svg>
