<svg width="16" height="16" viewBox="0 0 16 16" fill="none" xmlns="http://www.w3.org/2000/svg">
<path d="M6.29987 11.7C6.2332 11.7 6.17209 11.6889 6.11654 11.6667C6.06098 11.6444 6.00543 11.6056 5.94987 11.55L2.9332 8.53333C2.8332 8.43333 2.7832 8.31111 2.7832 8.16666C2.7832 8.02222 2.8332 7.9 2.9332 7.8C3.0332 7.7 3.14987 7.65 3.2832 7.65C3.41654 7.65 3.5332 7.7 3.6332 7.8L6.29987 10.4667L12.3499 4.41666C12.4499 4.31666 12.5693 4.26666 12.7082 4.26666C12.8471 4.26666 12.9665 4.31666 13.0665 4.41666C13.1665 4.51666 13.2165 4.63611 13.2165 4.775C13.2165 4.91388 13.1665 5.03333 13.0665 5.13333L6.64987 11.55C6.59431 11.6056 6.53876 11.6444 6.4832 11.6667C6.42765 11.6889 6.36654 11.7 6.29987 11.7Z" fill="white"/>
</svg>
