<svg width="40" height="40" viewBox="0 0 40 40" fill="none" xmlns="http://www.w3.org/2000/svg">
<g clip-path="url(#clip0_2_2391)">
<path d="M22.1047 13.8055C22.0368 13.8368 21.9717 13.8738 21.91 13.9161C21.5827 13.8595 21.254 13.7908 20.91 13.7161C18.9552 13.1296 16.859 13.2258 14.966 13.9888C14.1461 13.2164 13.5847 12.2097 13.3587 11.1061C13.257 10.608 12.8816 10.2107 12.39 10.0808C11.9093 9.9514 11.3969 10.1065 11.0687 10.4808C10.7963 10.785 10.5538 11.1147 10.3447 11.4655C10.233 11.2041 10.1418 10.9344 10.072 10.6588C9.94399 10.1327 9.51568 9.73295 8.98203 9.64145C8.46923 9.55033 7.95228 9.77851 7.67403 10.2188C7.2548 10.8714 6.92771 11.5787 6.70203 12.3208C6.46497 11.9026 6.01366 11.6523 5.53336 11.6728C5.00188 11.6941 4.53357 12.0284 4.34069 12.5241C3.90269 13.631 3.67414 14.8097 3.66669 16.0001C3.5914 19.2077 5.13539 22.2378 7.7747 24.0621C8.36403 28.1841 11.5514 31.1288 15.9794 31.5255C16.6594 32.9369 17.7017 34.1425 19 35.0195V38.1035C18.4347 38.2552 17.8875 38.4678 17.368 38.7375C17.1551 38.8446 17.0155 39.0573 17.0019 39.2953C16.9882 39.5333 17.1026 39.7604 17.3019 39.8913C17.5012 40.0221 17.7551 40.0366 17.968 39.9295C18.4937 39.6301 19.0692 39.4282 19.6667 39.3335C20.7328 39.395 21.7847 39.6081 22.7907 39.9661C23.017 40.0414 23.2662 39.9902 23.4445 39.8319C23.6228 39.6736 23.7031 39.4322 23.6552 39.1986C23.6072 38.965 23.4383 38.7747 23.212 38.6995C22.278 38.3823 21.3131 38.1646 20.3334 38.0501V35.0195C21.6613 34.1244 22.7179 32.8819 23.388 31.4275C28.6968 29.7904 32.3222 24.8889 32.3334 19.3335C32.3334 19.1048 32.3234 18.8668 32.3094 18.6215C32.4518 18.5105 32.5697 18.3711 32.6554 18.2121C32.8291 17.8957 32.8652 17.5219 32.7554 17.1781C32.134 15.098 31.7783 12.9476 31.6967 10.7781C32.288 10.4281 32.7781 9.93026 33.1187 9.33345H35C35.4626 9.33298 35.8919 9.09275 36.1343 8.69874C36.3767 8.30473 36.3975 7.81323 36.1894 7.40012L36.0754 7.17212C35.517 6.05303 34.3773 5.34242 33.1267 5.33345C32.9676 5.05394 32.7756 4.79453 32.5547 4.56078C33.2197 4.156 33.6373 3.4447 33.6667 2.66678C33.6653 2.05467 33.3842 1.47676 32.9037 1.09763C32.4231 0.718505 31.7957 0.579713 31.2 0.720783C30.8217 0.264225 30.2596 0 29.6667 0C29.0738 0 28.5117 0.264225 28.1334 0.720783C27.5377 0.579713 26.9103 0.718505 26.4297 1.09763C25.9492 1.47676 25.6681 2.05467 25.6667 2.66678C25.6607 3.46397 26.0314 4.2172 26.6667 4.69878C26.0232 5.42566 25.6676 6.36266 25.6667 7.33345C25.6667 7.38278 25.626 12.2948 22.1047 13.8055ZM23.654 29.9388C23.6269 29.5822 23.3212 29.3117 22.9639 29.3283C22.6067 29.3449 22.3273 29.6425 22.3334 30.0001C22.3334 31.7208 20.4594 33.2755 19.6667 33.8588C18.688 33.1481 17 31.5921 17 30.0001C17 29.6319 16.7016 29.3335 16.3334 29.3335C15.9652 29.3335 15.6667 29.6319 15.6667 30.0001C15.6667 30.0548 15.676 30.1075 15.6787 30.1615C11.65 29.6348 9.00003 26.7088 9.00003 22.6668C9.00003 22.2986 8.70155 22.0001 8.33336 22.0001C8.09389 22.0026 7.87461 22.1348 7.7607 22.3455C5.9351 20.7516 4.92168 18.4223 5.00003 16.0001C5.01115 14.9707 5.20202 13.9512 5.56403 12.9875C5.78491 13.436 6.04858 13.8622 6.35136 14.2601C6.3447 14.3935 6.33336 14.5268 6.33336 14.6668C6.33336 15.035 6.63184 15.3335 7.00003 15.3335C7.36822 15.3335 7.6667 15.035 7.6667 14.6668C7.66531 14.4827 7.67354 14.2987 7.69136 14.1155C7.78929 12.9944 8.16256 11.9149 8.77803 10.9728C8.96779 11.7369 9.29048 12.4618 9.73136 13.1141C9.69056 13.3428 9.66893 13.5745 9.6667 13.8068C9.6667 14.175 9.96517 14.4735 10.3334 14.4735C10.7016 14.4735 11 14.175 11 13.8068C11.0477 12.8953 11.4216 12.0315 12.0534 11.3728C12.2992 12.5661 12.8615 13.6714 13.6814 14.5728C13.5694 14.6308 13.46 14.6841 13.348 14.7475C13.135 14.8599 12.9992 15.0786 12.9928 15.3195C12.9865 15.5603 13.1106 15.7858 13.3174 15.9094C13.5242 16.0329 13.7817 16.0352 13.9907 15.9155C14.3854 15.6981 14.7587 15.5155 15.114 15.3635H15.118C16.8478 14.579 18.8048 14.4545 20.62 15.0135C20.8454 15.0641 21.0747 15.1155 21.3067 15.1628C21.327 15.3857 21.4046 15.5995 21.532 15.7835C22.5251 17.0868 23.8767 18.0721 25.4214 18.6188C26.5225 19.0505 27.696 19.2682 28.8787 19.2601C29.5894 19.2578 30.2982 19.1871 30.9954 19.0488C30.9954 19.1435 31.0027 19.2408 31.0027 19.3328C30.9938 24.0508 28.0686 28.2719 23.654 29.9368V29.9388ZM30.7574 9.76412L30.7267 9.77812C30.393 9.92608 30.0317 10.0017 29.6667 10.0001C29.2985 10.0001 29 10.2986 29 10.6668C29 11.035 29.2985 11.3335 29.6667 11.3335C29.9087 11.3329 30.1501 11.3106 30.388 11.2668C30.4982 13.4045 30.8667 15.521 31.4854 17.5701C29.6552 18.1009 27.7034 18.0339 25.914 17.3788C24.6153 16.9296 23.4747 16.1133 22.6307 15.0288C26.95 13.1775 27 7.57078 27 7.33345C26.9991 6.53176 27.3599 5.77244 27.982 5.26678C28.4548 4.87726 29.0488 4.66505 29.6614 4.66678C29.8535 4.66706 30.0452 4.68672 30.2334 4.72545C31.3589 4.97012 32.2002 5.90981 32.3193 7.05546C32.4384 8.20112 31.8085 9.29378 30.7574 9.76478V9.76412ZM34.884 7.77212L35 8.00012H33.6C33.6708 7.58233 33.6755 7.15603 33.614 6.73678C34.1658 6.88469 34.628 7.26147 34.884 7.77212ZM27.6667 2.00012C27.7981 1.9984 27.927 2.03677 28.036 2.11012C28.2078 2.2278 28.4246 2.2585 28.6223 2.19309C28.82 2.12768 28.9757 1.97369 29.0434 1.77678C29.135 1.51083 29.3854 1.33234 29.6667 1.33234C29.948 1.33234 30.1983 1.51083 30.29 1.77678C30.3577 1.97369 30.5134 2.12768 30.7111 2.19309C30.9088 2.2585 31.1256 2.2278 31.2974 2.11012C31.4065 2.037 31.5353 1.99865 31.6667 2.00012C32.0349 2.00012 32.3334 2.29859 32.3334 2.66678C32.3334 3.10612 31.8667 3.47745 31.3627 3.71545C31.0878 3.58228 30.798 3.48247 30.4994 3.41812C29.5654 3.22555 28.5935 3.3701 27.756 3.82612C27.3026 3.61658 27.0089 3.16621 27 2.66678C27 2.29859 27.2985 2.00012 27.6667 2.00012Z" fill="#262626"/>
<path d="M27.0106 23.5235C26.6559 23.4269 26.29 23.6357 26.1926 23.9902C25.8467 25.2732 24.8869 26.3011 23.6306 26.7342C15.9533 29.3602 12.678 24.5702 11.6226 22.3889L20.168 19.4622C20.3957 19.3868 20.5653 19.195 20.6123 18.9598C20.6592 18.7246 20.5763 18.4823 20.395 18.3253C20.2137 18.1683 19.962 18.1208 19.736 18.2009L11.1953 21.1275C10.8332 21.2488 10.541 21.5205 10.3937 21.8728C10.2463 22.2251 10.2581 22.6238 10.426 22.9669C11.1846 24.5409 13.7773 28.8335 19.4386 28.8335C21.0169 28.8122 22.5807 28.5298 24.0666 27.9975C25.7412 27.4208 27.0208 26.0513 27.4826 24.3415C27.5288 24.1704 27.505 23.988 27.4165 23.8345C27.3279 23.681 27.1819 23.5691 27.0106 23.5235Z" fill="#262626"/>
<path d="M16.6523 24.1748C16.329 23.9985 15.9239 24.1176 15.7476 24.4408C15.5712 24.7641 15.6903 25.1691 16.0136 25.3455C17.0633 25.9041 18.2373 26.188 19.4263 26.1708C20.7118 26.1469 21.9847 25.9122 23.1943 25.4762C23.4197 25.3991 23.5869 25.2076 23.6329 24.9739C23.6789 24.7401 23.5967 24.4996 23.4172 24.3429C23.2378 24.1862 22.9884 24.1371 22.7629 24.2142C20.3123 25.0528 18.2423 25.0415 16.6523 24.1748Z" fill="#262626"/>
<path d="M29.6667 8.83333C30.0349 8.83333 30.3333 8.53486 30.3333 8.16667C30.3333 7.79848 30.0349 7.5 29.6667 7.5C29.2985 7.5 29 7.79848 29 8.16667C29 8.53486 29.2985 8.83333 29.6667 8.83333Z" fill="#262626"/>
</g>
<defs>
<clipPath id="clip0_2_2391">
<rect width="40" height="40" fill="white"/>
</clipPath>
</defs>
</svg>
