<svg width="20" height="20" viewBox="0 0 20 20" fill="none" xmlns="http://www.w3.org/2000/svg">
<g clip-path="url(#clip0_2_2683)">
<path d="M12.5583 9.5L4.65137 8V19.0835C4.65137 19.5897 5.03307 20 5.50392 20H19.1476C19.6185 20 20.0002 19.5897 20.0002 19.0835V15L12.5583 9.5Z" fill="#185C37"/>
<path d="M12.5583 0H5.50392C5.03307 0 4.65137 0.410329 4.65137 0.916498V5L12.5583 10L16.7444 11.5L20.0002 10V5L12.5583 0Z" fill="#21A366"/>
<path d="M4.65137 5H12.5583V10H4.65137V5Z" fill="#107C41"/>
<path opacity="0.1" d="M10.3104 4H4.65137V16.5H10.3104C10.7806 16.4984 11.1614 16.089 11.163 15.5835V4.9165C11.1614 4.41101 10.7806 4.00164 10.3104 4Z" fill="#262626"/>
<path opacity="0.2" d="M9.84532 4.5H4.65137V17H9.84532C10.3155 16.9984 10.6963 16.589 10.6979 16.0835V5.4165C10.6963 4.91101 10.3155 4.50164 9.84532 4.5Z" fill="#262626"/>
<path opacity="0.2" d="M9.84532 4.5H4.65137V16H9.84532C10.3155 15.9984 10.6963 15.589 10.6979 15.0835V5.4165C10.6963 4.91101 10.3155 4.50164 9.84532 4.5Z" fill="#262626"/>
<path opacity="0.2" d="M9.38021 4.5H4.65137V16H9.38021C9.85042 15.9984 10.2312 15.589 10.2328 15.0835V5.4165C10.2312 4.91101 9.85042 4.50164 9.38021 4.5Z" fill="#262626"/>
<path d="M0.852556 4.5H9.37999C9.85085 4.5 10.2325 4.91033 10.2325 5.4165V14.5835C10.2325 15.0897 9.85085 15.5 9.37999 15.5H0.852556C0.381701 15.5 0 15.0897 0 14.5835V5.4165C0 4.91033 0.381701 4.5 0.852556 4.5V4.5Z" fill="url(#paint0_linear_2_2683)"/>
<path d="M2.64062 12.979L4.43411 9.99151L2.79086 7.02051H4.11272L5.00946 8.92051C5.09226 9.10101 5.14899 9.23501 5.1797 9.3235H5.19132C5.25024 9.1795 5.31225 9.03967 5.37737 8.904L6.33597 7.02151H7.54946L5.86434 9.97502L7.59226 12.979H6.30109L5.26528 10.8935C5.21649 10.8048 5.17508 10.7116 5.14156 10.615H5.12622C5.09587 10.7096 5.05561 10.8002 5.00621 10.885L3.9397 12.979H2.64062Z" fill="white"/>
<path d="M19.1479 0H12.5586V5H20.0004V0.916498C20.0004 0.410329 19.6187 0 19.1479 0V0Z" fill="#33C481"/>
<path d="M12.5586 10H20.0004V15H12.5586V10Z" fill="#107C41"/>
</g>
<defs>
<linearGradient id="paint0_linear_2_2683" x1="1.7776" y1="3.78387" x2="9.20512" y2="15.7505" gradientUnits="userSpaceOnUse">
<stop stop-color="#18884F"/>
<stop offset="0.5" stop-color="#117E43"/>
<stop offset="1" stop-color="#0B6631"/>
</linearGradient>
<clipPath id="clip0_2_2683">
<rect width="20" height="20" fill="white"/>
</clipPath>
</defs>
</svg>
