<svg width="16" height="20" viewBox="0 0 16 20" fill="none" xmlns="http://www.w3.org/2000/svg">
<g clip-path="url(#clip0_2_2957)">
<path d="M2.03163 7.09269e-05C0.911673 7.09269e-05 0 0.927629 0 2.06624V17.9338C0 19.0724 0.911673 20 2.03163 20H13.9658C15.0858 20 15.9975 19.0725 15.9975 17.9338V4.88625C15.9975 4.88625 16.0294 4.5042 15.8663 4.13241C15.7134 3.78392 15.4642 3.54136 15.4642 3.54136C15.4635 3.54051 15.4629 3.53965 15.4623 3.5388L12.5014 0.586049C12.4998 0.584365 12.4981 0.582697 12.4964 0.581048C12.4964 0.581048 12.2437 0.336313 11.8689 0.172822C11.4277 -0.0196803 10.9729 0.000640788 10.9729 0.000640788L10.9797 0L2.03163 7.09269e-05Z" fill="#FF2116"/>
<path d="M2.03204 0.678711H10.9801C10.9823 0.678734 10.9846 0.678734 10.9869 0.678711C10.9869 0.678711 11.3447 0.682236 11.6064 0.79642C11.8583 0.906318 12.0369 1.07268 12.0381 1.07379C12.0381 1.07379 12.0393 1.07507 12.0393 1.07507L14.9928 4.02093C14.9928 4.02093 15.1708 4.21194 15.257 4.4085C15.3266 4.56715 15.3309 4.85742 15.3309 4.85742C15.3306 4.86222 15.3304 4.86701 15.3303 4.87181V17.9338C15.3303 18.7083 14.728 19.3213 13.9662 19.3213H2.03204C1.27028 19.3213 0.667969 18.7083 0.667969 17.9338V2.0662C0.667969 1.2917 1.27028 0.678735 2.03204 0.678735V0.678711Z" fill="#F5F5F5"/>
<path d="M2.24013 15.7576C1.57946 15.076 2.29425 14.1394 4.2341 13.1448L5.45468 12.519L5.93019 11.4456C6.19173 10.8553 6.58206 9.89199 6.7976 9.30502L7.18951 8.23779L6.91944 7.44799C6.58737 6.47685 6.46896 5.01748 6.67965 4.49271C6.96503 3.78191 7.8998 3.85484 8.26987 4.61678C8.5589 5.21185 8.52935 6.28951 8.18674 7.6486L7.90587 8.76282L8.15327 9.19612C8.28935 9.43444 8.68681 10.0003 9.03654 10.4536L9.69382 11.2971L10.5117 11.187C13.11 10.8372 14 11.4317 14 12.2842C14 13.36 11.9598 13.4488 10.2465 12.2073C9.86098 11.928 9.59625 11.6505 9.59625 11.6505C9.59625 11.6505 8.52294 11.8759 7.99449 12.0229C7.44902 12.1745 7.17688 12.2695 6.37785 12.5478C6.37785 12.5478 6.0975 12.9678 5.91481 13.2732C5.23515 14.4092 4.44157 15.3507 3.87483 15.6934C3.24028 16.077 2.57506 16.1032 2.24013 15.7576ZM3.27694 15.3755C3.64831 15.1387 4.39997 14.2215 4.92029 13.3702L5.13096 13.0256L4.17174 13.5232C2.69023 14.2917 2.01247 15.016 2.3649 15.4541C2.56289 15.7002 2.79973 15.6798 3.27694 15.3755ZM12.9002 12.5887C13.2634 12.3262 13.2107 11.7973 12.8 11.584C12.4804 11.418 12.2228 11.3839 11.3926 11.3966C10.8824 11.4325 10.062 11.5385 9.92299 11.5708C9.92299 11.5708 10.3737 11.8922 10.5738 12.0103C10.8401 12.1672 11.4874 12.4586 11.96 12.6078C12.4262 12.755 12.6958 12.7395 12.9002 12.5887V12.5887ZM9.03079 10.9295C8.81096 10.6911 8.43715 10.1935 8.20012 9.82375C7.89011 9.40429 7.73466 9.10837 7.73466 9.10837C7.73466 9.10837 7.50807 9.86028 7.32218 10.3127L6.74221 11.7917L6.57406 12.1272C6.57406 12.1272 7.468 11.8248 7.92283 11.7022C8.40457 11.5724 9.38226 11.374 9.38226 11.374L9.03079 10.9295ZM7.78384 5.77043C7.83991 5.28497 7.86371 4.80023 7.71252 4.55579C7.29318 4.08284 6.78705 4.47724 6.87278 5.60166C6.90162 5.97992 6.99271 6.62654 7.11448 7.02509L7.33588 7.74972L7.49171 7.20395C7.57741 6.90378 7.70887 6.25869 7.78384 5.77043Z" fill="#FF2116"/>
</g>
<defs>
<clipPath id="clip0_2_2957">
<rect width="16" height="20" fill="white"/>
</clipPath>
</defs>
</svg>
