<svg width="20" height="20" viewBox="0 0 20 20" fill="none" xmlns="http://www.w3.org/2000/svg">
<g clip-path="url(#clip0_2_2987)">
<path d="M19.1476 0H5.50393C5.03307 0 4.65137 0.410331 4.65137 0.916503V5L12.5583 7.5L20.0002 5V0.916503C20.0002 0.410331 19.6185 0 19.1476 0V0Z" fill="#41A5EE"/>
<path d="M20.0002 5H4.65137V10L12.5583 11.5L20.0002 10V5Z" fill="#2B7CD3"/>
<path d="M4.65137 10V15L12.0932 16L20.0002 15V10H4.65137Z" fill="#185ABD"/>
<path d="M5.50393 20H19.1477C19.6185 20 20.0002 19.5897 20.0002 19.0835V15H4.65137V19.0835C4.65137 19.5897 5.03307 20 5.50393 20Z" fill="#103F91"/>
<path opacity="0.1" d="M10.3104 4H4.65137V16.5H10.3104C10.7807 16.4984 11.1615 16.089 11.163 15.5835V4.9165C11.1615 4.41102 10.7807 4.00165 10.3104 4Z" fill="black"/>
<path opacity="0.2" d="M9.8453 4.5H4.65137V17H9.8453C10.3155 16.9984 10.6963 16.589 10.6979 16.0835V5.4165C10.6963 4.91102 10.3155 4.50165 9.8453 4.5Z" fill="black"/>
<path opacity="0.2" d="M9.8453 4.5H4.65137V16H9.8453C10.3155 15.9984 10.6963 15.589 10.6979 15.0835V5.4165C10.6963 4.91102 10.3155 4.50165 9.8453 4.5Z" fill="black"/>
<path opacity="0.2" d="M9.3802 4.5H4.65137V16H9.3802C9.85042 15.9984 10.2312 15.589 10.2328 15.0835V5.4165C10.2312 4.91102 9.85042 4.50165 9.3802 4.5Z" fill="black"/>
<path d="M0.852561 4.5H9.38C9.85085 4.5 10.2326 4.91033 10.2326 5.4165V14.5835C10.2326 15.0897 9.85085 15.5 9.38 15.5H0.852561C0.381704 15.5 0 15.0897 0 14.5835V5.4165C0 4.91033 0.381704 4.5 0.852561 4.5Z" fill="url(#paint0_linear_2_2987)"/>
<path d="M3.49888 11.5291C3.51562 11.6706 3.52679 11.7936 3.5319 11.8991H3.55143C3.55887 11.7991 3.57437 11.6786 3.59794 11.5376C3.62151 11.3966 3.64275 11.2774 3.66166 11.1801L4.55841 7.02104H5.71795L6.64818 11.1176C6.70223 11.3723 6.74092 11.6305 6.764 11.8906H6.77935C6.79669 11.6386 6.82901 11.3881 6.87609 11.1406L7.61795 7.01904H8.6733L7.37004 12.9791H6.13702L5.2533 9.03204C5.22772 8.91855 5.19842 8.77004 5.16632 8.58754C5.13423 8.40504 5.11423 8.27154 5.10632 8.18754H5.09097C5.08074 8.28453 5.06073 8.42854 5.03097 8.61954C5.0012 8.81055 4.97732 8.95187 4.95933 9.04354L4.12863 12.9781H2.87468L1.56445 7.02103H2.63887L3.44678 11.1885C3.46492 11.2741 3.48214 11.3881 3.49888 11.5291Z" fill="white"/>
</g>
<defs>
<linearGradient id="paint0_linear_2_2987" x1="1.7776" y1="3.78387" x2="9.20512" y2="15.7505" gradientUnits="userSpaceOnUse">
<stop stop-color="#2368C4"/>
<stop offset="0.5" stop-color="#1A5DBE"/>
<stop offset="1" stop-color="#1146AC"/>
</linearGradient>
<clipPath id="clip0_2_2987">
<rect width="20" height="20" fill="white"/>
</clipPath>
</defs>
</svg>
